# xmcd
#
# Track frame offsets:
#	150
#	23222
#	50695
#	70769
#	89643
#	112685
#	135762
#	163470
#	187049
#	209541
#	227866
#
# Disc length: 3287 seconds
#
# Revision: 1
# Processed by: cddbd v1.5.1PL2 Copyright (c) Steve Scherf et al.
# Submitted via: audiograbber 1.81.02
#
DISCID=9a0cd50b
DTITLE=Various Artist - Men of Gospo (www.gerth.de)
DYEAR=2005
DGENRE=Gospel
TTITLE0=Kirk Franklin - Hosanna
TTITLE1=Kurt Carr and The Kurt Carr Singers - In The Sanctuary
TTITLE2=Lawrance Matthews and Friends - I Am Determined
TTITLE3=Byron Cage - Shabach
TTITLE4=Bobby Jones - Just A Closer Walk With Thee
TTITLE5=J Moss - We Must Praise
TTITLE6=Full Gospel Baptist Fellowship Mass Choir - Yet Praise Him
TTITLE7=Ray Bady - Mery Mercy Me
TTITLE8=The Soul Seekers - Make A Way
TTITLE9=Papa San - Breathe Again
TTITLE10=Gospel Gangstaz - I Can See Clearly Now
EXTD=www.gerth.de
EXTT0=
EXTT1=
EXTT2=
EXTT3=
EXTT4=
EXTT5=
EXTT6=
EXTT7=
EXTT8=
EXTT9=
EXTT10=
PLAYORDER=
